<svg width="248" height="80" viewBox="0 0 248 80" fill="none" xmlns="http://www.w3.org/2000/svg">
<rect width="248" height="80" rx="8" fill="white"/>
<path d="M68.5 40C68.5 53.524 57.5363 64.5 44 64.5C30.4637 64.5 19.5 53.524 19.5 40C19.5 26.4637 30.4637 15.5 44 15.5C57.5363 15.5 68.5 26.4637 68.5 40Z" fill="#283544"/>
<path d="M55.4837 33.8004C55.35 33.8784 52.1674 35.5243 52.1674 39.1737C52.3174 43.3357 56.1837 44.7952 56.25 44.7952C56.1837 44.8732 55.6663 46.7835 54.1337 48.786C52.9174 50.5109 51.5674 52.25 49.5174 52.25C47.5674 52.25 46.8674 51.1004 44.6174 51.1004C42.2011 51.1004 41.5174 52.25 39.6673 52.25C37.6173 52.25 36.1673 50.4177 34.8847 48.709C33.2184 46.4725 31.8021 42.9629 31.7521 39.5931C31.7184 37.8074 32.0858 36.0521 33.0184 34.5611C34.3347 32.4796 36.6847 31.0667 39.251 31.0201C41.2174 30.9583 42.9674 32.2781 44.1674 32.2781C45.3174 32.2781 47.4674 31.0201 49.9 31.0201C50.95 31.0211 53.75 31.3158 55.4837 33.8004ZM44.0011 30.6635C43.6511 29.0328 44.6174 27.4021 45.5174 26.3619C46.6674 25.1039 48.4837 24.25 50.05 24.25C50.15 25.8807 49.5163 27.4801 48.3837 28.6449C47.3674 29.9029 45.6174 30.8499 44.0011 30.6635Z" fill="white"/>
<path d="M83.368 28V19.6H86.788C89.476 19.6 91.288 21.328 91.288 23.8C91.288 26.272 89.476 28 86.788 28H83.368ZM84.256 27.232H86.74C88.972 27.232 90.412 25.816 90.412 23.8C90.412 21.784 88.972 20.368 86.74 20.368H84.256V27.232ZM95.6821 28.06C93.8341 28.06 92.4661 26.716 92.4661 24.844C92.4661 22.972 93.8341 21.64 95.6821 21.64C97.5301 21.64 98.8861 22.972 98.8861 24.844C98.8861 26.716 97.5301 28.06 95.6821 28.06ZM95.6821 27.304C97.0261 27.304 98.0221 26.32 98.0221 24.844C98.0221 23.368 97.0261 22.384 95.6821 22.384C94.3381 22.384 93.3301 23.368 93.3301 24.844C93.3301 26.32 94.3381 27.304 95.6821 27.304ZM108.934 21.688H109.714L107.326 28H106.522L104.53 22.828L102.538 28H101.734L99.3577 21.688H100.174L102.154 27.052L104.182 21.688H104.914L106.93 27.052L108.934 21.688ZM114.213 21.64C115.749 21.64 116.805 22.528 116.805 24.34V28H115.953V24.424C115.953 23.092 115.257 22.408 114.057 22.408C112.701 22.408 111.849 23.248 111.849 24.688V28H110.997V21.688H111.813V22.852C112.269 22.084 113.121 21.64 114.213 21.64ZM119.118 28V19.096H119.97V28H119.118ZM124.92 28.06C123.072 28.06 121.704 26.716 121.704 24.844C121.704 22.972 123.072 21.64 124.92 21.64C126.768 21.64 128.124 22.972 128.124 24.844C128.124 26.716 126.768 28.06 124.92 28.06ZM124.92 27.304C126.264 27.304 127.26 26.32 127.26 24.844C127.26 23.368 126.264 22.384 124.92 22.384C123.576 22.384 122.568 23.368 122.568 24.844C122.568 26.32 123.576 27.304 124.92 27.304ZM132.037 21.64C133.669 21.64 134.593 22.456 134.593 24.088V28H133.777V27.016C133.393 27.664 132.649 28.06 131.605 28.06C130.177 28.06 129.301 27.316 129.301 26.224C129.301 25.252 129.925 24.436 131.737 24.436H133.741V24.052C133.741 22.972 133.129 22.384 131.953 22.384C131.137 22.384 130.369 22.672 129.853 23.128L129.469 22.492C130.105 21.952 131.041 21.64 132.037 21.64ZM131.737 27.388C132.697 27.388 133.405 26.932 133.741 26.104V25.072H131.761C130.537 25.072 130.141 25.552 130.141 26.2C130.141 26.932 130.729 27.388 131.737 27.388ZM141.838 19.096H142.69V28H141.874V26.752C141.358 27.604 140.482 28.06 139.438 28.06C137.638 28.06 136.294 26.752 136.294 24.844C136.294 22.936 137.638 21.64 139.438 21.64C140.446 21.64 141.31 22.072 141.838 22.888V19.096ZM139.51 27.304C140.842 27.304 141.85 26.32 141.85 24.844C141.85 23.368 140.842 22.384 139.51 22.384C138.166 22.384 137.158 23.368 137.158 24.844C137.158 26.32 138.166 27.304 139.51 27.304ZM150.784 28.06C148.936 28.06 147.568 26.716 147.568 24.844C147.568 22.972 148.936 21.64 150.784 21.64C152.632 21.64 153.988 22.972 153.988 24.844C153.988 26.716 152.632 28.06 150.784 28.06ZM150.784 27.304C152.128 27.304 153.124 26.32 153.124 24.844C153.124 23.368 152.128 22.384 150.784 22.384C149.44 22.384 148.432 23.368 148.432 24.844C148.432 26.32 149.44 27.304 150.784 27.304ZM158.943 21.64C160.479 21.64 161.535 22.528 161.535 24.34V28H160.683V24.424C160.683 23.092 159.987 22.408 158.787 22.408C157.431 22.408 156.579 23.248 156.579 24.688V28H155.727V21.688H156.543V22.852C156.999 22.084 157.851 21.64 158.943 21.64ZM170.013 27.004L170.313 27.616C169.977 27.916 169.473 28.06 168.981 28.06C167.793 28.06 167.133 27.388 167.133 26.224V22.408H166.005V21.688H167.133V20.308H167.985V21.688H169.905V22.408H167.985V26.176C167.985 26.92 168.369 27.328 169.077 27.328C169.425 27.328 169.773 27.22 170.013 27.004ZM175.08 21.64C176.616 21.64 177.672 22.528 177.672 24.34V28H176.82V24.424C176.82 23.092 176.124 22.408 174.924 22.408C173.568 22.408 172.716 23.248 172.716 24.688V28H171.864V19.096H172.716V22.792C173.184 22.06 174.012 21.64 175.08 21.64ZM185.516 24.844C185.516 24.916 185.504 25.012 185.504 25.108H180.224C180.32 26.428 181.328 27.304 182.708 27.304C183.476 27.304 184.16 27.028 184.64 26.476L185.12 27.028C184.556 27.7 183.68 28.06 182.684 28.06C180.716 28.06 179.372 26.716 179.372 24.844C179.372 22.972 180.68 21.64 182.456 21.64C184.232 21.64 185.516 22.948 185.516 24.844ZM182.456 22.372C181.232 22.372 180.332 23.236 180.224 24.472H184.7C184.592 23.236 183.692 22.372 182.456 22.372ZM96.832 57L95.152 53.112H86.752L85.096 57H81.88L89.44 40.2H92.512L100.096 57H96.832ZM87.808 50.664H94.12L90.952 43.32L87.808 50.664ZM109.049 44.04C112.793 44.04 115.553 46.632 115.553 50.592C115.553 54.576 112.793 57.168 109.049 57.168C107.417 57.168 105.977 56.616 104.945 55.44V61.656H101.945V44.184H104.801V45.864C105.809 44.64 107.297 44.04 109.049 44.04ZM108.713 54.6C110.873 54.6 112.505 53.04 112.505 50.592C112.505 48.144 110.873 46.584 108.713 46.584C106.553 46.584 104.897 48.144 104.897 50.592C104.897 53.04 106.553 54.6 108.713 54.6ZM125.502 44.04C129.246 44.04 132.006 46.632 132.006 50.592C132.006 54.576 129.246 57.168 125.502 57.168C123.87 57.168 122.43 56.616 121.398 55.44V61.656H118.398V44.184H121.254V45.864C122.262 44.64 123.75 44.04 125.502 44.04ZM125.166 54.6C127.326 54.6 128.958 53.04 128.958 50.592C128.958 48.144 127.326 46.584 125.166 46.584C123.006 46.584 121.35 48.144 121.35 50.592C121.35 53.04 123.006 54.6 125.166 54.6ZM146.98 57.24C144.364 57.24 141.748 56.424 140.356 55.224L141.436 52.8C142.78 53.88 144.916 54.648 146.98 54.648C149.596 54.648 150.7 53.712 150.7 52.464C150.7 48.84 140.716 51.216 140.716 44.976C140.716 42.264 142.876 39.96 147.484 39.96C149.5 39.96 151.612 40.488 153.076 41.448L152.092 43.872C150.58 42.984 148.924 42.552 147.46 42.552C144.868 42.552 143.812 43.56 143.812 44.832C143.812 48.408 153.772 46.08 153.772 52.248C153.772 54.936 151.588 57.24 146.98 57.24ZM163.441 54.168L164.281 56.304C163.561 56.88 162.481 57.168 161.401 57.168C158.593 57.168 156.985 55.68 156.985 52.848V46.68H154.873V44.28H156.985V41.352H159.985V44.28H163.417V46.68H159.985V52.776C159.985 54.024 160.609 54.696 161.761 54.696C162.385 54.696 162.985 54.528 163.441 54.168ZM172.087 57.168C168.151 57.168 165.271 54.432 165.271 50.592C165.271 46.752 168.151 44.04 172.087 44.04C176.071 44.04 178.927 46.752 178.927 50.592C178.927 54.432 176.071 57.168 172.087 57.168ZM172.087 54.6C174.271 54.6 175.903 53.04 175.903 50.592C175.903 48.144 174.271 46.584 172.087 46.584C169.927 46.584 168.295 48.144 168.295 50.592C168.295 53.04 169.927 54.6 172.087 54.6ZM184.652 46.056C185.516 44.712 187.076 44.04 189.212 44.04V46.896C188.948 46.848 188.732 46.824 188.516 46.824C186.236 46.824 184.796 48.168 184.796 50.784V57H181.796V44.184H184.652V46.056ZM203.688 50.664C203.688 50.904 203.664 51.264 203.64 51.552H193.584C193.944 53.424 195.504 54.624 197.736 54.624C199.176 54.624 200.304 54.168 201.216 53.232L202.824 55.08C201.672 56.448 199.872 57.168 197.664 57.168C193.368 57.168 190.584 54.408 190.584 50.592C190.584 46.776 193.392 44.04 197.208 44.04C200.952 44.04 203.688 46.656 203.688 50.664ZM197.208 46.44C195.264 46.44 193.848 47.688 193.56 49.56H200.832C200.592 47.712 199.176 46.44 197.208 46.44Z" fill="black"/>
</svg>
